<svg xmlns="http://www.w3.org/2000/svg" xmlns:svg="http://www.w3.org/2000/svg" id="svg-mahjong" width="1136" height="176" version="1.1" viewBox="0 0 1136 176"><g id="buttons" stroke="none"><rect id="button-a" width="64" height="64" x="0" y="0" fill="#ccc"/><rect id="button-b" width="64" height="64" x="80" y="0" fill="#ccc"/><rect id="button-c" width="64" height="64" x="160" y="0" fill="#ccc"/><rect id="button-d" width="64" height="64" x="240" y="0" fill="#ccc"/><rect id="button-e" width="64" height="64" x="320" y="0" fill="#ccc"/><rect id="button-f" width="64" height="64" x="400" y="0" fill="#ccc"/><rect id="button-g" width="64" height="64" x="480" y="0" fill="#ccc"/><rect id="button-h" width="64" height="64" x="560" y="0" fill="#ccc"/><rect id="button-i" width="64" height="64" x="640" y="0" fill="#ccc"/><rect id="button-j" width="64" height="64" x="720" y="0" fill="#ccc"/><rect id="button-k" width="64" height="64" x="800" y="0" fill="#ccc"/><rect id="button-l" width="64" height="64" x="880" y="0" fill="#ccc"/><rect id="button-m" width="64" height="64" x="960" y="0" fill="#ccc"/><rect id="button-n" width="64" height="64" x="1072" y="0" fill="#f33"/><rect id="button-flipflop" width="64" height="64" x="0" y="112" fill="#ff3"/><rect id="button-start" width="64" height="64" x="80" y="112" fill="#ff3"/><rect id="button-bet" width="64" height="64" x="160" y="112" fill="#ff3"/><rect id="button-take" width="64" height="64" x="280" y="112" fill="#f6c"/><rect id="button-dup" width="64" height="64" x="360" y="112" fill="#f6c"/><rect id="button-big" width="64" height="64" x="440" y="112" fill="#f6c"/><rect id="button-small" width="64" height="64" x="520" y="112" fill="#f6c"/><rect id="button-last" width="64" height="64" x="640" y="112" fill="#3f9"/><rect id="button-kan" width="64" height="64" x="720" y="112" fill="#3f9"/><rect id="button-pon" width="64" height="64" x="800" y="112" fill="#3f9"/><rect id="button-chi" width="64" height="64" x="880" y="112" fill="#3f9"/><rect id="button-reach" width="64" height="64" x="960" y="112" fill="#3f9"/><rect id="button-ron" width="64" height="64" x="1072" y="112" fill="#f93"/></g><g id="labels" fill="#000" stroke="none" font-family="sans-serif" font-stretch="normal" font-style="normal" font-variant="normal" font-weight="bold" text-anchor="middle" style="text-align:center;line-height:1.25;letter-spacing:0;word-spacing:0"><text id="label-a" x="32" y="47.51" xml:space="preserve" style="font-size:42.66666794px"><tspan id="tspan-a0" x="32" y="47.51">A</tspan></text><text id="label-b" x="112" y="47.51" xml:space="preserve" style="font-size:42.66666794px"><tspan id="tspan-b0" x="112" y="47.51">B</tspan></text><text id="label-c" x="192" y="47.51" xml:space="preserve" style="font-size:42.66666794px"><tspan id="tspan-c0" x="192" y="47.51">C</tspan></text><text id="label-d" x="272" y="47.51" xml:space="preserve" style="font-size:42.66666794px"><tspan id="tspan-d0" x="272" y="47.51">D</tspan></text><text id="label-e" x="352" y="47.51" xml:space="preserve" style="font-size:42.66666794px"><tspan id="tspan-e0" x="352" y="47.51">E</tspan></text><text id="label-f" x="432" y="47.51" xml:space="preserve" style="font-size:42.66666794px"><tspan id="tspan-f0" x="432" y="47.51">F</tspan></text><text id="label-g" x="512" y="47.51" xml:space="preserve" style="font-size:42.66666794px"><tspan id="tspan-g0" x="512" y="47.51">G</tspan></text><text id="label-h" x="592" y="47.51" xml:space="preserve" style="font-size:42.66666794px"><tspan id="tspan-h0" x="592" y="47.51">H</tspan></text><text id="label-i" x="672" y="47.51" xml:space="preserve" style="font-size:42.66666794px"><tspan id="tspan-i0" x="672" y="47.51">I</tspan></text><text id="label-j" x="752" y="47.51" xml:space="preserve" style="font-size:42.66666794px"><tspan id="tspan-j0" x="752" y="47.51">J</tspan></text><text id="label-k" x="832" y="47.51" xml:space="preserve" style="font-size:42.66666794px"><tspan id="tspan-k0" x="832" y="47.51">K</tspan></text><text id="label-l" x="912" y="47.51" xml:space="preserve" style="font-size:42.66666794px"><tspan id="tspan-l0" x="912" y="47.51">L</tspan></text><text id="label-m" x="992" y="47.51" xml:space="preserve" style="font-size:42.66666794px"><tspan id="tspan-m0" x="992" y="47.51">M</tspan></text><text id="label-n" x="1104" y="47.51" xml:space="preserve" style="font-size:42.66666794px"><tspan id="tspan-n0" x="1104" y="47.51">N</tspan></text><text id="label-flipflop" x="32" y="140.413" xml:space="preserve" style="font-size:13.33333302px"><tspan id="tspan-flipflop0" x="32" y="140.413">FLIP</tspan><tspan id="tspan-flipflop1" x="32" y="157.174">FLOP</tspan></text><text id="label-start" x="112" y="148.847" xml:space="preserve" style="font-size:13.33333302px"><tspan id="tspan-start0" x="112" y="148.847">START</tspan></text><text id="label-bet" x="192" y="148.847" xml:space="preserve" style="font-size:13.33333302px"><tspan id="tspan-bet0" x="192" y="148.847">BET</tspan></text><text id="label-take" x="312" y="140.413" xml:space="preserve" style="font-size:13.33333302px"><tspan id="tspan-take0" x="312" y="140.413">TAKE</tspan><tspan id="tspan-take1" x="312" y="157.174">SCORE</tspan></text><text id="label-dup" x="392" y="140.413" xml:space="preserve" style="font-size:13.33333302px"><tspan id="tspan-dup0" x="392" y="140.413">DOUBLE</tspan><tspan id="tspan-dup1" x="392" y="157.174">UP</tspan></text><text id="label-big" x="472" y="148.847" xml:space="preserve" style="font-size:13.33333302px"><tspan id="tspan-big0" x="472" y="148.847">BIG</tspan></text><text id="label-small" x="552" y="148.847" xml:space="preserve" style="font-size:13.33333302px"><tspan id="tspan-small0" x="552" y="148.847">SMALL</tspan></text><text id="label-last" x="672" y="140.413" xml:space="preserve" style="font-size:13.33333302px"><tspan id="tspan-last0" x="672" y="140.413">LAST</tspan><tspan id="tspan-last1" x="672" y="157.174">CHANCE</tspan></text><text id="label-kan" x="752" y="148.847" xml:space="preserve" style="font-size:13.33333302px"><tspan id="tspan-kan0" x="752" y="148.847">KAN</tspan></text><text id="label-pon" x="832" y="148.847" xml:space="preserve" style="font-size:13.33333302px"><tspan id="tspan-pon0" x="832" y="148.847">PON</tspan></text><text id="label-chi" x="912" y="148.847" xml:space="preserve" style="font-size:13.33333302px"><tspan id="tspan-chi0" x="912" y="148.847">CHI</tspan></text><text id="label-reach" x="992" y="148.847" xml:space="preserve" style="font-size:13.33333302px"><tspan id="tspan-reach0" x="992" y="148.847">REACH</tspan></text><text id="label-ron" x="1104" y="148.847" xml:space="preserve" style="font-size:13.33333302px"><tspan id="tspan-ron0" x="1104" y="148.847">RON</tspan></text></g></svg>